<svg width="19" height="18" viewBox="0 0 19 18" fill="none" xmlns="http://www.w3.org/2000/svg">
<g clip-path="url(#clip0_107_1221)">
<path d="M6.65111 0.00195312H12.3422C12.7865 0.0252582 13.2309 0.047504 13.6752 0.0725746C14.4527 0.116007 15.214 0.242773 15.9276 0.546092C17.6782 1.2908 18.6005 2.61707 18.8876 4.37589C18.938 4.68663 18.9623 5.00125 18.9996 5.31375V12.5581C18.9884 12.6383 18.9761 12.7188 18.966 12.7993C18.9167 13.194 18.8962 13.5966 18.8103 13.985C18.4324 15.705 17.4048 16.9271 15.6562 17.5712C14.8182 17.8794 13.9359 17.9638 13.0468 17.9723C11.0326 17.9917 9.01813 18.0094 7.0036 17.9991C6.01445 17.9942 5.0197 17.9903 4.0466 17.7671C2.47046 17.4052 1.29983 16.5602 0.603428 15.1644C0.175131 14.3056 0.0433193 13.3819 0.0339841 12.4455C0.0119532 10.4995 -0.0108226 8.55316 0.00560722 6.60753C0.00815173 5.78747 0.0705342 4.96855 0.19231 4.15662C0.389468 2.89673 1.03098 1.85082 2.12095 1.07752C3.05446 0.414736 4.13734 0.151317 5.28033 0.0746932C5.73664 0.0415011 6.19406 0.0238458 6.65111 0.00195312ZM9.52148 16.4214V16.3936C10.0237 16.3936 10.5263 16.4077 11.0278 16.3907C12.1047 16.3554 13.1891 16.366 14.2551 16.24C15.7196 16.0666 16.7129 15.2717 17.0729 13.8932C17.2181 13.3363 17.2685 12.7467 17.279 12.1707C17.3118 10.3598 17.3213 8.54856 17.3074 6.73712C17.3074 6.00372 17.2606 5.27099 17.1673 4.54291C16.9732 3.09835 16.0176 2.11848 14.5094 1.83387C13.8582 1.71099 13.1816 1.67427 12.5151 1.66368C10.8482 1.63755 9.18056 1.64214 7.51143 1.64743C6.55775 1.65026 5.60146 1.63861 4.65637 1.79609C3.21353 2.0362 2.22401 2.90273 1.93051 4.2629C1.80318 4.84941 1.76136 5.45923 1.74792 6.05986C1.71543 7.5016 1.70311 8.94405 1.72029 10.3858C1.73223 11.4045 1.76061 12.4264 1.86367 13.4391C1.96449 14.4278 2.45813 15.2456 3.37596 15.7844C3.99657 16.1488 4.69409 16.2943 5.41289 16.3187C6.78255 16.365 8.1522 16.3861 9.52148 16.4186V16.4214Z" fill="white"/>
<path d="M4.6211 9.00291C4.62521 6.44818 6.8283 4.37226 9.52355 4.38285C12.2322 4.39345 14.4208 6.47219 14.4043 9.01986C14.3875 11.5774 12.2053 13.6364 9.51272 13.6339C6.81262 13.6321 4.61588 11.5527 4.6211 9.00291ZM6.34474 9.00291C6.34302 9.39654 6.42354 9.78661 6.58166 10.1507C6.73979 10.5149 6.97241 10.8459 7.26617 11.1247C7.55994 11.4036 7.90906 11.6249 8.2935 11.7758C8.67793 11.9268 9.09011 12.0044 9.50637 12.0043C9.92255 12.0066 10.3351 11.931 10.7203 11.7821C11.1056 11.6331 11.4559 11.4137 11.7512 11.1363C12.0465 10.859 12.2809 10.5292 12.4411 10.1659C12.6012 9.80268 12.6839 9.41307 12.6844 9.01951C12.6873 8.62438 12.6073 8.23263 12.449 7.86693C12.2908 7.50122 12.0575 7.1688 11.7625 6.88891C11.4676 6.60901 11.1169 6.38719 10.7307 6.23626C10.3445 6.08533 9.93057 6.0083 9.51272 6.00962C9.09652 6.00869 8.68423 6.08547 8.29949 6.23557C7.91474 6.38567 7.56513 6.60613 7.27069 6.88429C6.97626 7.16246 6.7428 7.49286 6.58371 7.85655C6.42462 8.22023 6.34303 8.61004 6.34362 9.00362L6.34474 9.00291Z" fill="white"/>
<path d="M14.6209 3.12146C14.7715 3.123 14.9203 3.15307 15.0584 3.20988C15.1965 3.26669 15.3211 3.34908 15.425 3.45221C15.5288 3.55533 15.6098 3.67708 15.6631 3.81029C15.7164 3.94349 15.7409 4.08543 15.7352 4.22774C15.7318 4.36864 15.6992 4.50754 15.639 4.63648C15.5789 4.76543 15.4924 4.8819 15.3846 4.97924C15.2768 5.07657 15.1498 5.15286 15.0108 5.20374C14.8719 5.25462 14.7236 5.2791 14.5746 5.27577C14.4243 5.2727 14.276 5.24158 14.1384 5.18419C14.0008 5.12681 13.8765 5.04429 13.7727 4.94137C13.6689 4.83845 13.5876 4.71716 13.5335 4.58445C13.4794 4.45175 13.4535 4.31025 13.4574 4.16807C13.461 4.02706 13.4939 3.8881 13.5544 3.75915C13.6148 3.6302 13.7016 3.51379 13.8096 3.41657C13.9177 3.31936 14.045 3.24325 14.1842 3.19261C14.3234 3.14197 14.4718 3.11779 14.6209 3.12146Z" fill="white"/>
</g>
<defs>
<clipPath id="clip0_107_1221">
<rect width="19" height="18" fill="white"/>
</clipPath>
</defs>
</svg>
