<svg width="173" height="52" viewBox="0 0 173 52" fill="none" xmlns="http://www.w3.org/2000/svg">
<path d="M55.0482 51.9333V49.797H53.0905V51.9333H52.207V47.1859H53.0905V49.2652H55.0482V47.1859H55.9317V51.9333H55.0482ZM60.7362 51.9333H58.1273V47.1859H60.6393L60.5976 47.6653L59.0108 47.689V49.2368L60.5094 49.2557L60.4676 49.6941L59.0108 49.7304V51.43L60.7781 51.4663L60.7362 51.9333ZM65.3861 51.9333L64.8808 50.3334L63.2492 50.3571L62.7252 51.9333H62.1665L63.8816 47.2255L64.7363 47.0625L66.3331 51.9335L65.3861 51.9333ZM64.7379 49.8824L64.0897 47.8315L63.4024 49.8824H64.7379ZM68.0349 51.9333V47.1859H68.9184V51.4302H70.5558L70.5138 51.9333H68.0349ZM72.8969 51.9333V47.689L71.563 47.6653L71.6047 47.1859H75.1147L75.0728 47.6527L73.7806 47.689V51.9333H72.8969ZM79.7097 51.9333V49.797H77.752V51.9333H76.8685V47.1859H77.752V49.2652H79.7097V47.1859H80.5932V51.9333H79.7097ZM83.7965 50.5755L83.8383 49.9488H85.4339L85.3919 50.5755H83.7965ZM92.2075 51.9524L89.1523 48.6291H89.1409C89.1452 48.9076 89.1509 49.1641 89.1568 49.3981C89.1596 49.4978 89.1625 49.5976 89.1639 49.6973C89.1655 49.7986 89.1669 49.8903 89.1684 49.9757C89.1698 50.0598 89.1712 50.1339 89.1726 50.1972C89.1741 50.2607 89.1741 50.3064 89.1741 50.3348V51.9331H88.6545V47.1572H89.043L92.1021 50.471H92.1066C92.1009 50.2146 92.0966 49.9757 92.0935 49.7525C92.0935 49.6577 92.0921 49.5611 92.0907 49.4629C92.0891 49.3663 92.0877 49.2729 92.0864 49.1861C92.0848 49.0973 92.0848 49.0166 92.0848 48.9425C92.0848 48.868 92.0848 48.8079 92.0848 48.7619V47.1857H92.6046V51.9522L92.2075 51.9524ZM97.4045 51.9333H94.7955V47.1859H97.3077L97.2658 47.6653L95.6792 47.689V49.2368L97.1777 49.2557L97.1358 49.6941L95.6792 49.7304V51.43L97.4465 51.4663L97.4045 51.9333ZM101.985 49.4505C101.965 49.3919 101.949 49.335 101.935 49.2827C101.92 49.2307 101.907 49.1846 101.895 49.1436C101.885 49.0975 101.872 49.0549 101.858 49.0138C101.849 49.0549 101.839 49.0992 101.828 49.1483C101.817 49.1911 101.804 49.2417 101.79 49.2969C101.776 49.3525 101.76 49.4109 101.74 49.4728L100.99 51.9335H100.123L98.8433 47.1861H99.779L100.511 50.014C100.543 50.1311 100.573 50.2563 100.602 50.3907C100.632 50.5252 100.66 50.6519 100.686 50.7689C100.716 50.9051 100.746 51.0395 100.774 51.1724C100.817 51.0235 100.859 50.8781 100.901 50.7357C100.938 50.6153 100.976 50.4887 101.015 50.3559C101.055 50.223 101.09 50.1059 101.122 50.0077L101.803 47.7747H102.312L103.017 50.0077C103.049 50.1059 103.084 50.2228 103.122 50.3559C103.161 50.4887 103.197 50.6153 103.23 50.7357C103.27 50.8781 103.309 51.0235 103.348 51.1724C103.388 51.0235 103.425 50.8781 103.459 50.7371C103.49 50.6151 103.521 50.4887 103.555 50.3557C103.586 50.2242 103.615 50.1073 103.641 50.0091L104.344 47.1859H104.873L103.633 51.9333H102.765L101.985 49.4505ZM114.681 49.5439C114.681 49.9206 114.635 50.2609 114.544 50.5631C114.452 50.8668 114.314 51.1247 114.133 51.3368C113.949 51.5505 113.721 51.7135 113.448 51.829C113.174 51.943 112.856 52.0001 112.492 52.0001C112.121 52.0001 111.802 51.9414 111.538 51.8243C111.272 51.707 111.054 51.541 110.883 51.3259C110.711 51.1107 110.585 50.8526 110.504 50.552C110.425 50.2514 110.385 49.9141 110.385 49.5439C110.385 49.1737 110.426 48.8396 110.509 48.5423C110.592 48.2462 110.719 47.9931 110.891 47.7858C111.063 47.5768 111.283 47.4171 111.548 47.3047C111.815 47.194 112.133 47.1384 112.501 47.1384C112.865 47.1384 113.183 47.194 113.454 47.3047C113.726 47.4171 113.952 47.5768 114.134 47.7858C114.316 47.9931 114.452 48.2462 114.544 48.5423C114.635 48.8396 114.681 49.1737 114.681 49.5439ZM113.754 49.5455C113.754 49.2559 113.73 48.9965 113.682 48.7686C113.635 48.5391 113.559 48.3444 113.458 48.1845C113.357 48.0247 113.227 47.9013 113.07 47.8159C112.911 47.7319 112.723 47.6892 112.503 47.6892C112.312 47.6892 112.133 47.7113 111.968 47.7542C111.804 47.7968 111.674 47.8585 111.577 47.9395C111.482 48.0201 111.412 48.1926 111.368 48.4601C111.324 48.7274 111.303 49.0899 111.303 49.5457C111.303 49.8307 111.323 50.0885 111.362 50.3196C111.401 50.5506 111.467 50.7501 111.558 50.9161C111.651 51.0838 111.772 51.2122 111.923 51.304C112.076 51.3941 112.267 51.44 112.495 51.44C112.729 51.44 112.922 51.418 113.075 51.3736C113.23 51.3279 113.358 51.2693 113.462 51.1948C113.51 51.1599 113.552 51.0919 113.589 50.9892C113.626 50.8847 113.656 50.7597 113.68 50.6107C113.703 50.4637 113.722 50.2975 113.735 50.1138C113.748 49.9303 113.754 49.7402 113.754 49.5455ZM117.788 49.7308L117.909 49.7024C118.025 49.6756 118.131 49.6391 118.232 49.5963C118.334 49.5536 118.42 49.4903 118.495 49.4063C118.569 49.3224 118.627 49.2133 118.668 49.0755C118.71 48.9381 118.732 48.7623 118.732 48.5502C118.732 48.3889 118.713 48.2511 118.677 48.1356C118.641 48.0184 118.59 47.9235 118.527 47.8508C118.462 47.7763 118.384 47.7211 118.293 47.6862C118.202 47.6495 118.101 47.6322 117.988 47.6322C117.877 47.6322 117.76 47.6418 117.641 47.6608V51.9335H116.757V47.2082C116.849 47.2017 116.95 47.1955 117.06 47.1891C117.17 47.1843 117.282 47.178 117.398 47.1733C117.513 47.1685 117.629 47.1654 117.746 47.1621C117.863 47.1591 117.975 47.1573 118.085 47.1573C118.349 47.1573 118.579 47.1889 118.775 47.2523C118.97 47.3156 119.133 47.4057 119.262 47.5214C119.392 47.6368 119.487 47.7791 119.549 47.947C119.611 48.1165 119.642 48.3032 119.642 48.5104C119.642 48.7304 119.608 48.9362 119.541 49.1294C119.473 49.3223 119.367 49.4917 119.224 49.6358C119.082 49.7781 118.898 49.8922 118.677 49.9758C118.455 50.06 118.191 50.101 117.884 50.101H117.847L117.788 49.7308ZM122.583 49.7308L122.705 49.7024C122.82 49.6756 122.927 49.6391 123.028 49.5963C123.129 49.5536 123.216 49.4903 123.291 49.4063C123.365 49.3224 123.422 49.2133 123.464 49.0755C123.506 48.9381 123.528 48.7623 123.528 48.5502C123.528 48.3889 123.509 48.2511 123.473 48.1356C123.436 48.0184 123.386 47.9235 123.323 47.8508C123.258 47.7763 123.18 47.7211 123.089 47.6862C122.998 47.6495 122.897 47.6322 122.784 47.6322C122.673 47.6322 122.556 47.6418 122.436 47.6608V51.9335H121.553V47.2082C121.645 47.2017 121.746 47.1955 121.856 47.1891C121.966 47.1843 122.078 47.178 122.194 47.1733C122.309 47.1685 122.425 47.1654 122.541 47.1621C122.658 47.1591 122.771 47.1573 122.881 47.1573C123.145 47.1573 123.375 47.1889 123.571 47.2523C123.766 47.3156 123.929 47.4057 124.058 47.5214C124.188 47.6368 124.283 47.7791 124.345 47.947C124.407 48.1165 124.437 48.3032 124.437 48.5104C124.437 48.7304 124.404 48.9362 124.336 49.1294C124.268 49.3223 124.163 49.4917 124.02 49.6358C123.877 49.7781 123.694 49.8922 123.473 49.9758C123.25 50.06 122.986 50.101 122.68 50.101H122.643L122.583 49.7308ZM130.515 49.5441C130.515 49.9208 130.469 50.261 130.378 50.5632C130.285 50.867 130.148 51.1249 129.966 51.337C129.783 51.5506 129.555 51.7137 129.282 51.8292C129.008 51.9431 128.69 52.0003 128.326 52.0003C127.955 52.0003 127.636 51.9415 127.372 51.8245C127.106 51.7072 126.888 51.5412 126.716 51.3261C126.544 51.1108 126.419 50.8528 126.338 50.5522C126.259 50.2516 126.218 49.9143 126.218 49.5441C126.218 49.1739 126.26 48.8398 126.342 48.5425C126.426 48.2464 126.553 47.9933 126.725 47.7859C126.897 47.577 127.116 47.4173 127.382 47.3049C127.649 47.1941 127.967 47.1386 128.335 47.1386C128.699 47.1386 129.016 47.1941 129.288 47.3049C129.559 47.4173 129.786 47.577 129.968 47.7859C130.15 47.9933 130.285 48.2464 130.378 48.5425C130.469 48.8398 130.515 49.1739 130.515 49.5441ZM129.588 49.5457C129.588 49.2561 129.563 48.9967 129.516 48.7688C129.468 48.5393 129.393 48.3446 129.292 48.1847C129.191 48.0248 129.061 47.9014 128.904 47.8161C128.745 47.7321 128.557 47.6893 128.336 47.6893C128.146 47.6893 127.967 47.7114 127.802 47.7544C127.637 47.797 127.508 47.8587 127.411 47.9397C127.315 48.0203 127.246 48.1928 127.201 48.4603C127.158 48.7276 127.136 49.0901 127.136 49.5458C127.136 49.8309 127.157 50.0887 127.196 50.3198C127.235 50.5508 127.301 50.7503 127.392 50.9163C127.484 51.084 127.605 51.2123 127.757 51.3042C127.91 51.3943 128.1 51.4402 128.329 51.4402C128.563 51.4402 128.756 51.4181 128.909 51.3738C129.064 51.328 129.192 51.2695 129.296 51.195C129.344 51.1601 129.385 51.0921 129.423 50.9894C129.459 50.8849 129.49 50.7599 129.514 50.6109C129.537 50.4638 129.556 50.2977 129.569 50.114C129.582 49.9304 129.588 49.7404 129.588 49.5457ZM133.77 49.9778H133.474V51.9337H132.591V47.1989C132.679 47.1924 132.773 47.1863 132.877 47.1798C132.979 47.175 133.084 47.1687 133.193 47.164C133.303 47.1593 133.412 47.1561 133.523 47.1528C133.635 47.1496 133.741 47.148 133.842 47.148C134.367 47.148 134.764 47.2525 135.035 47.463C135.305 47.6736 135.441 47.9996 135.441 48.4441C135.441 48.642 135.418 48.8145 135.371 48.9632C135.324 49.112 135.263 49.2403 135.187 49.3493C135.112 49.4601 135.024 49.552 134.925 49.6265C134.826 49.6992 134.723 49.7625 134.616 49.8163C134.746 50.0586 134.869 50.288 134.986 50.5031C135.103 50.7184 135.219 50.9066 135.334 51.0681C135.45 51.2297 135.568 51.3578 135.689 51.4513C135.81 51.5447 135.94 51.5922 136.077 51.5922H136.108V51.8975C136.037 51.9214 135.958 51.9419 135.867 51.9579C135.777 51.9738 135.675 51.9815 135.562 51.9815C135.455 51.9815 135.357 51.9752 135.269 51.9626C135.18 51.9514 135.097 51.9263 135.019 51.8914C134.941 51.8565 134.866 51.8043 134.791 51.7363C134.716 51.6681 134.639 51.5797 134.56 51.4672C134.482 51.3566 134.397 51.2204 134.308 51.059C134.217 50.8961 134.118 50.7029 134.011 50.4784L133.77 49.9778ZM133.626 49.5125C133.75 49.5125 133.87 49.4966 133.984 49.4635C134.098 49.4319 134.187 49.3907 134.252 49.3415C134.286 49.3162 134.32 49.2862 134.353 49.2514C134.387 49.2151 134.417 49.166 134.444 49.1025C134.47 49.0393 134.492 48.9604 134.508 48.8638C134.524 48.769 134.531 48.6485 134.531 48.5029C134.531 48.3432 134.514 48.2071 134.478 48.0962C134.443 47.9854 134.391 47.8953 134.322 47.8285C134.252 47.7638 134.167 47.7148 134.066 47.6864C133.965 47.6562 133.846 47.642 133.711 47.642C133.679 47.642 133.642 47.6436 133.597 47.6467C133.552 47.6497 133.51 47.6545 133.474 47.6609V49.5125H133.626ZM138.443 51.9337V47.6893L137.109 47.6657L137.151 47.1863H140.661L140.619 47.6531L139.327 47.6893V51.9337H138.443ZM146.113 50.261C146.113 50.4984 146.072 50.7231 145.986 50.9334C145.903 51.144 145.777 51.3275 145.612 51.4856C145.448 51.6425 145.243 51.7675 144.997 51.8607C144.752 51.9542 144.467 52.0001 144.143 52.0001C143.875 52.0001 143.633 51.9699 143.418 51.9112C143.203 51.8527 143.018 51.7578 142.866 51.6264C142.715 51.4951 142.596 51.3226 142.512 51.1089C142.43 50.8952 142.388 50.6342 142.388 50.3255V47.1859H143.272V50.4205C143.272 50.6579 143.292 50.8477 143.333 50.9887C143.374 51.1296 143.433 51.2369 143.51 51.3114C143.588 51.3843 143.685 51.4334 143.8 51.4537C143.916 51.4758 144.05 51.487 144.202 51.487C144.388 51.487 144.55 51.4663 144.684 51.4253C144.82 51.3843 144.932 51.3287 145.022 51.2607C145.113 51.191 145.17 51.0819 145.194 50.9349C145.218 50.7874 145.229 50.6088 145.229 50.3999V47.1857H146.113L146.113 50.261ZM151.846 51.9528L148.791 48.6294H148.78C148.784 48.908 148.79 49.1644 148.796 49.3984C148.799 49.4982 148.801 49.5979 148.803 49.6976C148.804 49.799 148.806 49.8906 148.807 49.976C148.809 50.0602 148.81 50.1343 148.812 50.1976C148.813 50.261 148.813 50.3068 148.813 50.3352V51.9335H148.293V47.1575H148.682L151.741 50.4714H151.745C151.74 50.2149 151.735 49.976 151.732 49.7529C151.732 49.658 151.731 49.5614 151.729 49.4633C151.728 49.3667 151.727 49.2733 151.725 49.1865C151.724 49.0976 151.724 49.017 151.724 48.9428C151.724 48.8683 151.724 48.8082 151.724 48.7623V47.1861H152.243V51.9526L151.846 51.9528ZM155.318 51.9337H154.434V47.1863H155.318V51.9337ZM158.396 51.9337V47.6893L157.061 47.6657L157.103 47.1863H160.613L160.571 47.6531L159.279 47.6893V51.9337H158.396ZM163.25 51.9337H162.367V47.1863H163.25V51.9337ZM168.053 51.9337H165.445V47.1863H167.957L167.915 47.6657L166.328 47.6893V49.2372L167.827 49.2561L167.785 49.6945L166.328 49.7308V51.4304L168.095 51.4667L168.053 51.9337ZM172.594 50.5443C172.594 50.7168 172.553 50.8893 172.474 51.0633C172.393 51.2358 172.279 51.3927 172.13 51.5319C171.983 51.6711 171.804 51.7836 171.596 51.8706C171.387 51.9577 171.153 52.0004 170.894 52.0004C170.753 52.0004 170.624 51.9926 170.508 51.9766C170.39 51.9624 170.279 51.9387 170.175 51.9086C170.071 51.8769 169.972 51.8404 169.875 51.7994C169.78 51.7584 169.683 51.7107 169.588 51.6585L169.804 50.9559C169.866 51.0016 169.95 51.0507 170.056 51.1C170.161 51.1505 170.275 51.1981 170.395 51.2407C170.515 51.2835 170.636 51.32 170.76 51.3485C170.884 51.3785 170.998 51.3929 171.1 51.3929C171.333 51.3929 171.51 51.3643 171.628 51.3089C171.693 51.2788 171.746 51.2092 171.787 51.1C171.829 50.9922 171.849 50.8498 171.849 50.6742C171.849 50.549 171.819 50.4461 171.758 50.3655C171.697 50.2833 171.618 50.2104 171.518 50.1487C171.42 50.0871 171.306 50.0316 171.179 49.9827C171.052 49.9336 170.923 49.8798 170.792 49.8244C170.661 49.7692 170.532 49.7041 170.405 49.6314C170.278 49.5602 170.164 49.4698 170.066 49.3623C169.966 49.2563 169.887 49.1281 169.826 48.9779C169.765 48.8275 169.735 48.6471 169.735 48.4335C169.735 48.2941 169.77 48.1469 169.839 47.9919C169.909 47.8368 170.008 47.6976 170.141 47.5694C170.274 47.4429 170.437 47.3384 170.629 47.2544C170.822 47.1705 171.043 47.1295 171.292 47.1295C171.491 47.1295 171.683 47.1405 171.865 47.161C172.045 47.1831 172.223 47.2101 172.395 47.245L172.259 47.946C172.178 47.9158 172.087 47.8874 171.988 47.862C171.887 47.8352 171.785 47.8112 171.68 47.7922C171.576 47.7733 171.475 47.7575 171.377 47.7449C171.277 47.7337 171.191 47.7276 171.114 47.7276C171.032 47.7276 170.947 47.7323 170.859 47.7433C170.77 47.7545 170.697 47.7766 170.64 47.8098C170.584 47.8446 170.544 47.9034 170.518 47.9856C170.493 48.0678 170.48 48.1675 170.48 48.2846C170.48 48.4049 170.511 48.5062 170.571 48.5854C170.632 48.6661 170.711 48.7358 170.809 48.7944C170.909 48.8547 171.021 48.9083 171.149 48.9574C171.274 49.0065 171.404 49.0603 171.537 49.1173C171.67 49.1742 171.8 49.2391 171.926 49.3118C172.052 49.3848 172.165 49.4766 172.265 49.5856C172.363 49.6964 172.442 49.8279 172.503 49.983C172.564 50.1382 172.594 50.3245 172.594 50.5443Z" fill="#1D1D1D"/>
<path d="M13.5663 45.0844L1.90193 31.7241H1.85775C1.87421 32.8438 1.89656 33.8746 1.91839 34.8162C1.92948 35.2169 1.94039 35.6177 1.94594 36.0185C1.95148 36.4257 1.95703 36.7947 1.96257 37.1383C1.96794 37.4754 1.97366 37.7744 1.97903 38.029C1.98458 38.2835 1.98458 38.4679 1.98458 38.5825V45.0082H0V25.8075H1.4828L13.1638 39.1296H13.1803C13.1584 38.0991 13.1416 37.1383 13.1307 36.2413C13.1307 35.8596 13.1253 35.4715 13.1196 35.0771C13.1142 34.689 13.1085 34.3137 13.1032 33.9638C13.0978 33.6076 13.0978 33.2829 13.0978 32.9839C13.0978 32.6849 13.0978 32.4431 13.0978 32.2587V25.9221H15.0822V45.0846H13.5661L13.5663 45.0844ZM28.9078 45.0082H18.9467V25.9219H28.5383L28.3785 27.8496L22.3203 27.945V34.1671L28.0422 34.2434L27.8823 36.0057L22.3203 36.1521V42.985L29.0676 43.1312L28.9077 45.008L28.9078 45.0082ZM47.6944 35.4013C47.6944 36.9155 47.518 38.2835 47.1708 39.4984C46.8181 40.72 46.2943 41.7571 45.5997 42.6095C44.8998 43.4684 44.0288 44.1237 42.9867 44.5884C41.9393 45.0464 40.7266 45.2753 39.3375 45.2753C37.9209 45.2753 36.7025 45.0399 35.6938 44.5691C34.6795 44.0982 33.8469 43.4302 33.1911 42.565C32.535 41.6997 32.0555 40.6629 31.7468 39.4539C31.4436 38.2451 31.2894 36.8901 31.2894 35.4013C31.2894 33.9126 31.4493 32.5704 31.7636 31.3742C32.0831 30.1843 32.5682 29.1664 33.2242 28.3332C33.8804 27.4934 34.7181 26.8506 35.7326 26.3989C36.7524 25.9537 37.9651 25.731 39.371 25.731C40.76 25.731 41.9729 25.9537 43.0092 26.3989C44.0457 26.8506 44.9109 27.4932 45.6056 28.3332C46.3 29.1666 46.8184 30.1843 47.1712 31.3742C47.5184 32.5702 47.6948 33.9126 47.6948 35.4013H47.6944ZM44.1555 35.4078C44.1555 34.2435 44.0619 33.2 43.8798 32.2841C43.6981 31.3618 43.4113 30.5791 43.0255 29.9365C42.6394 29.2938 42.1434 28.7978 41.5427 28.4542C40.9362 28.1169 40.2196 27.9452 39.3762 27.9452C38.6486 27.9452 37.9649 28.0344 37.3367 28.206C36.7081 28.3779 36.212 28.626 35.8428 28.9504C35.4789 29.2749 35.2143 29.9684 35.0435 31.0436C34.878 32.1187 34.7956 33.5757 34.7956 35.408C34.7956 36.5532 34.8727 37.5902 35.0215 38.5191C35.1705 39.4479 35.424 40.2495 35.7712 40.9176C36.124 41.5919 36.5871 42.1073 37.166 42.4763C37.7504 42.8389 38.478 43.0234 39.349 43.0234C40.242 43.0234 40.9806 42.9343 41.5648 42.7562C42.1548 42.5718 42.6455 42.3364 43.0423 42.0373C43.224 41.8975 43.3841 41.6238 43.5272 41.2103C43.6652 40.7903 43.7809 40.2878 43.8746 39.6897C43.9628 39.0981 44.0346 38.43 44.0841 37.6922C44.1337 36.9542 44.1558 36.1907 44.1558 35.4082L44.1555 35.4078ZM75.2515 38.2835C75.2515 39.2378 75.0916 40.141 74.7665 40.9873C74.4469 41.8335 73.9671 42.5715 73.3387 43.2076C72.7102 43.8374 71.9274 44.34 70.9904 44.7154C70.0534 45.0909 68.9674 45.2755 67.727 45.2755C66.7071 45.2755 65.781 45.1547 64.9597 44.9191C64.1383 44.6837 63.4328 44.3021 62.8539 43.774C62.2748 43.246 61.8231 42.5525 61.5033 41.6936C61.189 40.8348 61.0291 39.7849 61.0291 38.5443V25.9221H64.4027V38.9261C64.4027 39.8804 64.4798 40.6438 64.6342 41.2101C64.7941 41.7763 65.0202 42.209 65.3122 42.508C65.6098 42.8006 65.9791 42.9979 66.4202 43.0807C66.8612 43.1697 67.3738 43.2142 67.9527 43.2142C68.664 43.2142 69.2813 43.1315 69.7938 42.9662C70.3121 42.8007 70.7421 42.5781 71.0838 42.3045C71.4312 42.0245 71.6518 41.5856 71.74 40.9938C71.8337 40.4022 71.8777 39.6834 71.8777 38.8435V25.9223H75.2513V38.2838L75.2515 38.2835ZM92.6381 45.0844L80.9736 31.7241H80.9296C80.946 32.8438 80.9679 33.8746 80.9902 34.8162C81.0011 35.2169 81.012 35.6177 81.0178 36.0185C81.0231 36.4257 81.0287 36.7947 81.0342 37.1383C81.0396 37.4754 81.0453 37.7744 81.0507 38.029C81.0562 38.2835 81.0562 38.4679 81.0562 38.5825V45.0082H79.0716V25.8075H80.5545L92.2354 39.1296H92.2521C92.2301 38.0991 92.2133 37.1383 92.2023 36.2413C92.2023 35.8596 92.197 35.4715 92.1914 35.0771C92.1859 34.689 92.1802 34.3137 92.1748 33.9638C92.1694 33.6076 92.1694 33.2829 92.1694 32.9839C92.1694 32.6849 92.1694 32.4431 92.1694 32.2587V25.9221H94.154V45.0846H92.6379L92.6381 45.0844ZM101.392 45.0082H98.0183V25.9219H101.392V45.0082ZM116.943 25.9219H118.993L112.852 45.0082H109.539L103.316 25.9219H106.948L110.096 36.2094C110.339 36.9919 110.565 37.7618 110.78 38.5124C110.995 39.2634 111.193 39.9438 111.364 40.5546C111.557 41.2608 111.744 41.9415 111.915 42.5841C112.13 41.8142 112.351 41.0445 112.566 40.2746C112.748 39.6003 112.952 38.8814 113.183 38.1115C113.409 37.3416 113.624 36.6226 113.828 35.9484L116.943 25.9218V25.9219ZM130.895 45.0082H120.934V25.9219H130.525L130.366 27.8496L124.307 27.945V34.1671L130.029 34.2434L129.869 36.0057L124.307 36.1521V42.985L131.055 43.1312L130.895 45.008L130.895 45.0082ZM138.276 37.1448H137.146V45.0082H133.772V25.9729C134.109 25.9474 134.467 25.9219 134.864 25.8965C135.256 25.8776 135.658 25.852 136.071 25.8329C136.49 25.814 136.909 25.8012 137.334 25.7884C137.758 25.7757 138.166 25.7694 138.552 25.7694C140.553 25.7694 142.069 26.1893 143.105 27.0354C144.136 27.8815 144.654 29.1922 144.654 30.98C144.654 31.7751 144.566 32.4687 144.39 33.0666C144.208 33.6647 143.976 34.1799 143.684 34.619C143.397 35.0644 143.061 35.4336 142.686 35.7323C142.306 36.025 141.914 36.2794 141.507 36.4959C142.003 37.4693 142.471 38.3916 142.918 39.2569C143.364 40.1221 143.805 40.8792 144.246 41.5283C144.687 42.1771 145.14 42.6928 145.602 43.0677C146.065 43.4427 146.324 43.6339 146.848 43.6339H147.082L146.964 44.8618C146.694 44.9572 146.628 45.0401 146.281 45.1037C145.939 45.1673 145.547 45.1991 145.117 45.1991C144.71 45.1991 144.335 45.1735 143.998 45.1226C143.657 45.0781 143.342 44.9765 143.045 44.8366C142.747 44.6967 142.461 44.4867 142.174 44.2129C141.887 43.9394 141.595 43.5832 141.292 43.1313C140.994 42.6861 140.669 42.139 140.327 41.4901C139.98 40.8348 139.605 40.0587 139.197 39.1552L138.277 37.1448H138.276ZM137.725 35.2743C138.199 35.2743 138.657 35.2105 139.092 35.0769C139.528 34.9496 139.869 34.7843 140.117 34.5869C140.244 34.4853 140.376 34.3643 140.503 34.2243C140.63 34.0781 140.746 33.8807 140.85 33.6263C140.95 33.3718 141.032 33.0537 141.093 32.6656C141.154 32.2838 141.181 31.8003 141.181 31.215C141.181 30.5724 141.115 30.0252 140.977 29.5799C140.845 29.1345 140.647 28.7718 140.382 28.5047C140.117 28.2438 139.792 28.0468 139.406 27.9322C139.02 27.8112 138.569 27.7539 138.05 27.7539C137.929 27.7539 137.786 27.7604 137.615 27.773C137.444 27.7856 137.284 27.8047 137.146 27.8303V35.2739H137.725L137.725 35.2743ZM159.69 39.4223C159.69 40.1156 159.536 40.8091 159.233 41.5088C158.924 42.2023 158.489 42.8321 157.921 43.3922C157.359 43.9519 156.675 44.4036 155.881 44.7537C155.082 45.1035 154.189 45.2753 153.202 45.2753C152.662 45.2753 152.171 45.2436 151.725 45.18C151.278 45.1226 150.854 45.0271 150.457 44.9065C150.06 44.7791 149.68 44.6329 149.31 44.4674C148.947 44.3021 148.577 44.1112 148.214 43.9012L149.04 41.0766C149.277 41.261 149.597 41.4584 150 41.6556C150.402 41.8591 150.838 42.0501 151.295 42.2217C151.752 42.3934 152.216 42.5399 152.69 42.6545C153.164 42.7753 153.599 42.8326 153.985 42.8326C154.878 42.8326 155.551 42.7182 156.003 42.4956C156.251 42.3748 156.455 42.0947 156.609 41.6557C156.769 41.2231 156.846 40.6506 156.846 39.9444C156.846 39.4418 156.73 39.0281 156.499 38.7038C156.267 38.3731 155.964 38.0805 155.584 37.8321C155.209 37.5841 154.773 37.3613 154.288 37.1642C153.803 36.9672 153.312 36.7507 152.811 36.5281C152.31 36.3057 151.819 36.0447 151.334 35.7519C150.849 35.4657 150.413 35.103 150.038 34.6704C149.658 34.2441 149.355 33.7285 149.123 33.1245C148.892 32.5203 148.776 31.7947 148.776 30.9358C148.776 30.3757 148.908 29.784 149.173 29.1608C149.437 28.5376 149.818 27.9774 150.325 27.462C150.832 26.953 151.455 26.5332 152.188 26.1959C152.927 25.8588 153.77 25.6934 154.718 25.6934C155.479 25.6934 156.212 25.7379 156.907 25.8208C157.596 25.9098 158.274 26.018 158.93 26.1579L158.412 28.9762C158.103 28.8554 157.756 28.741 157.375 28.6391C156.989 28.531 156.603 28.4356 156.201 28.359C155.804 28.2829 155.418 28.2193 155.043 28.1683C154.663 28.1238 154.332 28.0982 154.04 28.0982C153.726 28.0982 153.401 28.1173 153.064 28.1618C152.728 28.2063 152.447 28.2956 152.232 28.429C152.017 28.5688 151.862 28.8043 151.763 29.1352C151.67 29.466 151.62 29.8669 151.62 30.3377C151.62 30.8212 151.736 31.2284 151.967 31.5465C152.199 31.871 152.502 32.1507 152.877 32.3862C153.257 32.6281 153.687 32.8442 154.172 33.0414C154.652 33.2388 155.148 33.4549 155.655 33.6842C156.162 33.9131 156.658 34.1741 157.138 34.4667C157.623 34.7592 158.053 35.1284 158.433 35.5673C158.808 36.0126 159.111 36.5407 159.343 37.1641C159.574 37.7872 159.69 38.5384 159.69 39.4227L159.69 39.4223ZM172.374 45.0082H162.413V25.9219H172.005L171.845 27.8496L165.787 27.945V34.1671L171.509 34.2434L171.349 36.0057L165.787 36.1521V42.985L172.534 43.1312L172.374 45.008L172.374 45.0082Z" fill="#1D1D1D"/>
<path fill-rule="evenodd" clip-rule="evenodd" d="M50.7227 28.9204C47.1443 14.8654 47.3499 17.489 51.0419 8.59418C48.6862 14.7073 50.425 17.3225 51.7249 21.5638C51.5426 22.1929 51.3875 22.8475 51.2553 23.5343C50.9235 25.2544 50.7608 27.0659 50.7227 28.9204ZM51.9326 34.4856C49.9305 12.1284 61.2813 15.5979 66.5014 0C67.6892 11.9903 57.4454 15.6796 54.0355 26.761C52.757 29.1306 52.1274 31.7917 51.9326 34.4856ZM53.5092 45.0103C50.8655 34.8761 52.3829 24.9944 60.9254 20.7648C54.2757 28.7089 54.6347 33.1702 54.4846 44.9689C54.3817 45.4175 53.7564 45.4439 53.5092 45.0103Z" fill="#1D1D1D"/>
</svg>
