<svg width="88" height="93" viewBox="0 0 88 93" fill="none" xmlns="http://www.w3.org/2000/svg">
<g filter="url(#filter0_d_107_1225)">
<circle cx="44" cy="24" r="21" fill="#61BF1A"/>
<circle cx="44" cy="24" r="21" stroke="white" stroke-width="5"/>
</g>
<path fill-rule="evenodd" clip-rule="evenodd" d="M40.7142 27.3681C38.7084 19.3526 38.8237 20.8488 40.8931 15.7762C39.5726 19.2624 40.5473 20.7538 41.2759 23.1726C41.1737 23.5314 41.0868 23.9047 41.0127 24.2964C40.8267 25.2774 40.7355 26.3104 40.7142 27.3681ZM41.3924 30.5418C40.2702 17.7917 46.6325 19.7704 49.5585 10.875C50.2242 17.7129 44.4824 19.817 42.5711 26.1366C41.8544 27.4879 41.5015 29.0055 41.3924 30.5418ZM42.276 36.5439C40.7942 30.7645 41.6448 25.1291 46.433 22.717C42.7057 27.2474 42.9069 29.7917 42.8228 36.5203C42.7651 36.7762 42.4146 36.7913 42.276 36.5439Z" fill="white"/>
<path d="M43.5 60L33.5407 42.75L53.4593 42.75L43.5 60Z" fill="white"/>
<defs>
<filter id="filter0_d_107_1225" x="0.5" y="0.5" width="87" height="92" filterUnits="userSpaceOnUse" color-interpolation-filters="sRGB">
<feFlood flood-opacity="0" result="BackgroundImageFix"/>
<feColorMatrix in="SourceAlpha" type="matrix" values="0 0 0 0 0 0 0 0 0 0 0 0 0 0 0 0 0 0 127 0" result="hardAlpha"/>
<feOffset dy="25"/>
<feGaussianBlur stdDeviation="10"/>
<feComposite in2="hardAlpha" operator="out"/>
<feColorMatrix type="matrix" values="0 0 0 0 0 0 0 0 0 0 0 0 0 0 0 0 0 0 0.1 0"/>
<feBlend mode="normal" in2="BackgroundImageFix" result="effect1_dropShadow_107_1225"/>
<feBlend mode="normal" in="SourceGraphic" in2="effect1_dropShadow_107_1225" result="shape"/>
</filter>
</defs>
</svg>
